<?xml version="1.0" encoding="utf-8"?>
<!-- Generator: Adobe Illustrator 27.0.1, SVG Export Plug-In . SVG Version: 6.00 Build 0)  -->
<svg version="1.1" id="Layer_1" xmlns="http://www.w3.org/2000/svg" xmlns:xlink="http://www.w3.org/1999/xlink" x="0px" y="0px"
	 viewBox="0 0 32.5 32.5" style="enable-background:new 0 0 32.5 32.5;" xml:space="preserve">
<style type="text/css">
	.st0{fill:#FA4A0C;}
	.st1{fill:none;stroke:#FFFFFF;stroke-width:2;stroke-linecap:round;stroke-linejoin:round;}
</style>
<path class="st0" d="M24.4,0H8.1C3.6,0,0,3.6,0,8.1v16.2c0,4.5,3.6,8.1,8.1,8.1h16.2c4.5,0,8.1-3.6,8.1-8.1V8.1
	C32.5,3.6,28.9,0,24.4,0z"/>
<path class="st1" d="M22.8,15.2c0.2,1.4,0,2.7-0.7,3.9c-0.6,1.2-1.6,2.2-2.8,2.8c-1.2,0.6-2.6,0.8-4,0.6c-1.3-0.2-2.6-0.9-3.6-1.8
	c-1-1-1.6-2.2-1.8-3.6c-0.2-1.3,0-2.7,0.6-4c0.6-1.2,1.6-2.2,2.8-2.8c1.2-0.6,2.6-0.9,3.9-0.7c1.4,0.2,2.7,0.8,3.6,1.8
	S22.5,13.8,22.8,15.2z"/>
<path class="st1" d="M25.2,7.3L25.2,7.3"/>
</svg>
